<svg xmlns="http://www.w3.org/2000/svg" fill="none" viewBox="0 0 24 24" id="Asian-Interior-Bonsai-Tree-1--Streamline-Ultimate.svg"><desc>Asian Interior Bonsai Tree 1 Streamline Icon: https://streamlinehq.com</desc><path fill="#78eb7b" d="M21.751 5.27995c0.0001 0.48856 -0.096 0.97235 -0.2829 1.42374 -0.1869 0.45139 -0.4609 0.86153 -0.8064 1.20699 -0.3454 0.34546 -0.7556 0.61947 -1.207 0.80637 -0.4514 0.1869 -0.9351 0.28303 -1.4237 0.2829H4.221c-0.6362 0.00166 -1.26219 -0.15986 -1.81815 -0.46914s-1.02332 -0.75597 -1.3574 -1.29739C0.711371 6.692 0.521727 6.07394 0.494645 5.43832 0.467562 4.8027 0.603946 4.17076 0.890761 3.60288c0.286819 -0.56787 0.714479 -1.0527 1.242119 -1.40815 0.52764 -0.35545 1.13762 -0.56964 1.77165 -0.6221 0.63403 -0.05246 1.27092 0.05857 1.84981 0.32246 0.57888 0.2639 1.08041 0.67185 1.45666 1.18486 0.32762 -0.76555 0.87277 -1.41809 1.56783 -1.87667C9.47389 0.744695 10.2883 0.500244 11.121 0.500244c0.8327 0 1.6471 0.244451 2.3422 0.703036 0.695 0.45858 1.2402 1.11112 1.5678 1.87667 0.4637 -0.63245 1.1154 -1.10217 1.8621 -1.34205 0.7466 -0.23989 1.55 -0.23768 2.2953 0.00632 0.7453 0.244 1.3945 0.71731 1.8547 1.3523 0.4602 0.635 0.708 1.3992 0.7079 2.18343Z" stroke-width="1"></path><path fill="#78eb7b" d="M20.923 12.454c0.1726 -0.1774 0.3863 -0.3093 0.6223 -0.384 0.2359 -0.0747 0.4866 -0.0899 0.7298 -0.0442 0.2432 0.0457 0.4714 0.1509 0.6641 0.3061 0.1927 0.1553 0.344 0.3558 0.4404 0.5837 0.0964 0.2279 0.1349 0.4762 0.1121 0.7226 -0.0227 0.2464 -0.1062 0.4833 -0.2427 0.6897 -0.1366 0.2064 -0.3221 0.3757 -0.5401 0.493 -0.2179 0.1173 -0.4614 0.1788 -0.7089 0.1791h-3c-0.372 -0.0002 -0.7366 -0.1041 -1.0528 -0.3001 -0.3161 -0.196 -0.5714 -0.4763 -0.737 -0.8094 -0.1657 -0.3331 -0.2351 -0.7058 -0.2006 -1.0762 0.0345 -0.3704 0.1717 -0.7238 0.3961 -1.0205 0.2243 -0.2967 0.527 -0.525 0.8739 -0.6592 0.347 -0.1342 0.7245 -0.1689 1.0901 -0.1003 0.3657 0.0686 0.7049 0.2378 0.9797 0.4886 0.2747 0.2508 0.474 0.5732 0.5756 0.9311" stroke-width="1"></path><path fill="#e3bfb3" d="M16.241 19.5H7.01099l-0.73 -1.57c-0.16756 -0.3592 -0.22461 -0.7601 -0.1639 -1.1518 0.06072 -0.3917 0.23645 -0.7566 0.5049 -1.0482l2.75 -2.99c0.09222 -0.1 0.16304 -0.2179 0.20815 -0.3462 0.04511 -0.1284 0.06354 -0.2646 0.05418 -0.4003 -0.00936 -0.1358 -0.04632 -0.2682 -0.10862 -0.3891 -0.0623 -0.121 -0.14863 -0.228 -0.2537 -0.3144L6.49999 9h3.5l2.83101 1.89c0.4412 0.2934 0.748 0.7498 0.853 1.2692 0.105 0.5193 -0.0004 1.0591 -0.293 1.5008l-1.33 1.99c-0.0742 0.1103 -0.125 0.2347 -0.1493 0.3654 -0.0243 0.1307 -0.0214 0.265 0.0083 0.3946 0.0266 0.1307 0.0793 0.2548 0.1549 0.3648 0.0756 0.1099 0.1726 0.2035 0.2851 0.2752l3.881 2.45Z" stroke-width="1"></path><path fill="#ffdda1" d="M21.951 20.09c-0.1389 0.9483 -0.6147 1.8149 -1.3402 2.4411 -0.7256 0.6262 -1.6524 0.9701 -2.6108 0.9689H4.5c-0.95893 0.0004 -1.88611 -0.3437 -2.6126 -0.9696 -0.72649 -0.6259 -1.203956 -1.492 -1.345399 -2.4404 -0.01187 -0.0726 -0.007843 -0.1469 0.011803 -0.2177 0.019646 -0.0709 0.054442 -0.1366 0.101984 -0.1927 0.047543 -0.0561 0.106698 -0.1012 0.17338 -0.1322 0.066681 -0.0311 0.139298 -0.0472 0.212832 -0.0474h20.419c0.0731 0.0003 0.1453 0.0166 0.2115 0.0478 0.0661 0.0312 0.1246 0.0765 0.1713 0.1327 0.0467 0.0563 0.0805 0.1221 0.0991 0.1929 0.0185 0.0707 0.0213 0.1447 0.0081 0.2166Z" stroke-width="1"></path><path fill="#c9f7ca" d="M4.221 4.88595c0.58302 -0.00079 1.15792 0.13654 1.67764 0.40075 0.51971 0.2642 0.96944 0.64775 1.31236 1.11925 0.32762 -0.76555 0.87277 -1.41809 1.56784 -1.87667 0.69506 -0.45858 1.50946 -0.70304 2.34216 -0.70304 0.8327 0 1.6471 0.24446 2.3422 0.70304 0.695 0.45858 1.2402 1.11112 1.5678 1.87667 0.3746 -0.51527 0.8759 -0.92509 1.4554 -1.18978 0.5794 -0.26469 1.2174 -0.37529 1.8522 -0.32108 0.6347 0.05422 1.2447 0.2714 1.7709 0.63052s0.9507 0.84801 1.2325 1.41934c0.2655 -0.51507 0.4056 -1.08554 0.409 -1.665 0.0001 -0.78423 -0.2477 -1.54843 -0.7079 -2.18343 -0.4602 -0.63499 -1.1094 -1.1083 -1.8547 -1.3523 -0.7453 -0.244 -1.5487 -0.24621 -2.2953 -0.00632 -0.7466 0.23988 -1.3984 0.7096 -1.8621 1.34205 -0.3276 -0.76555 -0.8728 -1.41809 -1.5678 -1.87667 -0.6951 -0.458585 -1.5095 -0.703036 -2.3422 -0.703036s-1.6471 0.244451 -2.34216 0.703036C8.08377 1.66186 7.53862 2.3144 7.211 3.07995c-0.5487 -0.75428 -1.36159 -1.27399 -2.27652 -1.45546 -0.91493 -0.18147 -1.86464 -0.01136 -2.65969 0.4764C1.47973 2.58865 0.897773 3.35821 0.644996 4.25605c-0.252777 0.89785 -0.157792 1.85799 0.266008 2.6889 0.305896 -0.61688 0.777656 -1.13631 1.362326 -1.5 0.58466 -0.3637 1.25912 -0.55727 1.94767 -0.559Z" stroke-width="1"></path><path fill="#c9f7ca" d="M19 12.565c0.4354 0 0.8588 0.1422 1.206 0.4048 0.3473 0.2626 0.5994 0.6313 0.718 1.0502 0.1588 -0.1641 0.3531 -0.2896 0.568 -0.3668 0.2149 -0.0773 0.4447 -0.1042 0.6716 -0.0788 0.2269 0.0254 0.445 0.1024 0.6375 0.2253 0.1925 0.1228 0.3543 0.2881 0.4729 0.4833 0.1883 -0.3143 0.2551 -0.6866 0.1878 -1.0467 -0.0673 -0.36 -0.2641 -0.6831 -0.5532 -0.9081 -0.2891 -0.225 -0.6505 -0.3364 -1.0161 -0.3132 -0.3656 0.0231 -0.7101 0.1793 -0.9685 0.439 -0.0751 -0.2623 -0.203 -0.5065 -0.376 -0.7175 -0.173 -0.211 -0.3873 -0.3844 -0.6297 -0.5095 -0.2425 -0.1251 -0.508 -0.1992 -0.7802 -0.2179 -0.2722 -0.0187 -0.5453 0.0185 -0.8026 0.1093 -0.2573 0.0909 -0.4932 0.2333 -0.6934 0.4188 -0.2001 0.1854 -0.3602 0.4098 -0.4704 0.6593 -0.1103 0.2496 -0.1682 0.5191 -0.1704 0.7919 -0.0022 0.2729 0.0515 0.5433 0.1577 0.7946 0.1535 -0.3613 0.4099 -0.6694 0.7372 -0.886 0.3274 -0.2166 0.7113 -0.3321 1.1038 -0.332Z" stroke-width="1"></path><path fill="#c77f67" d="M9.585 12.37h4.122c-0.026 -0.2964 -0.1181 -0.5832 -0.2695 -0.8393 -0.1514 -0.2561 -0.3583 -0.4751 -0.6055 -0.6407L10 9H6.5l2.77 2.29c0.15369 0.1285 0.2657 0.2998 0.32179 0.4921 0.05609 0.1923 0.05373 0.3969 -0.00679 0.5879Z" stroke-width="1"></path><path fill="#ffbc44" d="M21.461 19.5h-0.151c-0.3616 0.5474 -0.8531 0.9968 -1.4307 1.3079 -0.5776 0.3112 -1.2232 0.4744 -1.8793 0.4751H4.5c-0.6566 -0.0015 -1.3027 -0.165 -1.88096 -0.476 -0.57827 -0.3111 -1.07085 -0.76 -1.43404 -1.307h-0.143c-0.073534 0.0002 -0.146151 0.0163 -0.212832 0.0474 -0.066682 0.031 -0.125837 0.0761 -0.17338 0.1322 -0.047542 0.0561 -0.082338 0.1218 -0.101984 0.1927 -0.019646 0.0708 -0.023673 0.1451 -0.011803 0.2177 0.141443 0.9484 0.618909 1.8145 1.345399 2.4404 0.72649 0.6259 1.65367 0.97 2.6126 0.9696H18c0.9582 0.001 1.8848 -0.3431 2.6101 -0.9693 0.7254 -0.6262 1.201 -1.4926 1.3399 -2.4407 0.0132 -0.0719 0.0104 -0.1457 -0.0081 -0.2164 -0.0184 -0.0707 -0.0522 -0.1364 -0.0988 -0.1927 -0.0466 -0.0562 -0.1049 -0.1016 -0.171 -0.1328 -0.066 -0.0313 -0.1381 -0.0477 -0.2111 -0.0481Z" stroke-width="1"></path><path stroke="#191919" stroke-linecap="round" stroke-linejoin="round" d="M15.034 3.07901c0.3762 -0.51201 0.8773 -0.91911 1.4555 -1.18246 0.5782 -0.26336 1.2142 -0.37419 1.8474 -0.32194 0.6332 0.05226 1.2425 0.26587 1.7697 0.62045 0.5272 0.35459 0.9547 0.83833 1.2419 1.40508 0.2872 0.56676 0.4243 1.19763 0.3984 1.83246 -0.0259 0.63482 -0.214 1.25243 -0.5463 1.79391 -0.3324 0.54149 -0.798 0.98879 -1.3523 1.29926 -0.5543 0.31046 -1.1789 0.47373 -1.8143 0.47424H4.219c-0.63535 -0.00051 -1.25998 -0.16378 -1.81431 -0.47424C1.85035 8.2153 1.3848 7.768 1.05243 7.22651 0.720066 6.68503 0.531964 6.06742 0.506067 5.4326 0.48017 4.79777 0.617342 4.1669 0.904501 3.60014c0.287159 -0.56675 0.714729 -1.05049 1.241929 -1.40508 0.5272 -0.35458 1.13646 -0.56819 1.76966 -0.62045 0.6332 -0.05225 1.26923 0.05858 1.84743 0.32194 0.5782 0.26335 1.07929 0.67045 1.45548 1.18246" stroke-width="1"></path><path stroke="#191919" stroke-linecap="round" stroke-linejoin="round" d="M7.216 3.07903c0.32757 -0.76532 0.87259 -1.41766 1.56747 -1.8761C9.47835 0.744495 10.2925 0.500122 11.125 0.500122s1.6467 0.244373 2.3415 0.702808c0.6949 0.45844 1.2399 1.11078 1.5675 1.8761" stroke-width="1"></path><path stroke="#191919" stroke-linecap="round" stroke-linejoin="round" d="M20.925 12.454c0.1726 -0.1774 0.3865 -0.3094 0.6225 -0.3841 0.236 -0.0747 0.4868 -0.0898 0.7301 -0.044 0.2433 0.0458 0.4715 0.1511 0.6642 0.3065 0.1927 0.1554 0.3439 0.3561 0.4402 0.5841 0.0963 0.2281 0.1346 0.4764 0.1116 0.7229 -0.023 0.2465 -0.1066 0.4835 -0.2435 0.6897 -0.1368 0.2063 -0.3226 0.3756 -0.5407 0.4926 -0.2181 0.1171 -0.4618 0.1783 -0.7094 0.1783h-3c-0.372 -0.0002 -0.7366 -0.1041 -1.0528 -0.3001 -0.3161 -0.196 -0.5714 -0.4763 -0.737 -0.8094 -0.1657 -0.3331 -0.2351 -0.7058 -0.2006 -1.0762 0.0345 -0.3704 0.1717 -0.7238 0.3961 -1.0205 0.2243 -0.2967 0.527 -0.525 0.8739 -0.6592 0.347 -0.1342 0.7245 -0.1689 1.0901 -0.1003 0.3657 0.0686 0.7049 0.2378 0.9797 0.4886 0.2747 0.2508 0.474 0.5732 0.5756 0.9311" stroke-width="1"></path><path stroke="#191919" stroke-linecap="round" stroke-linejoin="round" d="m6.49999 9 2.775 2.294c0.10477 0.0864 0.19083 0.1933 0.25295 0.3141 0.06211 0.1207 0.09897 0.2529 0.10833 0.3884 0.00935 0.1355 -0.00899 0.2715 -0.05391 0.3996 -0.04492 0.1282 -0.11547 0.2459 -0.20737 0.3459l-2.749 2.989c-0.26845 0.2916 -0.44419 0.6565 -0.5049 1.0482 -0.06071 0.3917 -0.00367 0.7926 0.1639 1.1518l0.732 1.569" stroke-width="1"></path><path stroke="#191919" stroke-linecap="round" stroke-linejoin="round" d="m10 9 2.836 1.891c0.4413 0.2942 0.7476 0.7516 0.8517 1.2716 0.1041 0.52 -0.0027 1.0601 -0.2967 1.5014l-1.324 1.986c-0.0741 0.1108 -0.1253 0.2353 -0.1506 0.3662 -0.0253 0.1309 -0.0242 0.2655 0.0033 0.3959 0.0275 0.1305 0.0808 0.2541 0.1567 0.3636 0.076 0.1096 0.1731 0.2028 0.2856 0.2743l3.885 2.45" stroke-width="1"></path><path stroke="#191919" stroke-linecap="round" stroke-linejoin="round" d="m20.5 15 -0.329 0.658c-0.2083 0.4166 -0.5108 0.779 -0.8834 1.0585 -0.3727 0.2794 -0.8053 0.4682 -1.2636 0.5515l-4.127 0.749" stroke-width="1"></path><path stroke="#191919" stroke-linecap="round" stroke-linejoin="round" d="M1.04 19.5c-0.073287 0.0004 -0.145619 0.0166 -0.212054 0.0476 -0.066434 0.0309 -0.125405 0.0758 -0.172879 0.1317 -0.047475 0.0558 -0.082333 0.1212 -0.102193 0.1918 -0.019859 0.0705 -0.024252 0.1445 -0.012876 0.2169 0.141057 0.9491 0.618622 1.816 1.345572 2.4423 0.72696 0.6264 1.65485 0.9705 2.61443 0.9697H18c0.9591 0.0001 1.8862 -0.3444 2.6126 -0.9707 0.7263 -0.6263 1.2034 -1.4927 1.3444 -2.4413 0.0114 -0.0724 0.007 -0.1464 -0.0129 -0.2169 -0.0198 -0.0706 -0.0547 -0.136 -0.1022 -0.1918 -0.0474 -0.0559 -0.1064 -0.1008 -0.1728 -0.1317 -0.0665 -0.031 -0.1388 -0.0472 -0.2121 -0.0476H1.04Z" stroke-width="1"></path></svg>