<svg xmlns="http://www.w3.org/2000/svg" fill="none" viewBox="0 0 24 24" id="Flying-Insect-Ladybug--Streamline-Ultimate.svg"><desc>Flying Insect Ladybug Streamline Icon: https://streamlinehq.com</desc><path fill="#808080" d="M16 6.436V4.5c0 -1.06087 -0.4214 -2.07828 -1.1716 -2.82843C14.0783 0.921427 13.0609 0.5 12 0.5c-1.0609 0 -2.07828 0.421427 -2.82843 1.17157C8.42143 2.42172 8 3.43913 8 4.5v1.936" stroke-width="1"></path><path fill="#b2b2b2" d="M12 0.5c-1.0609 0 -2.07828 0.421427 -2.82843 1.17157C8.42143 2.42172 8 3.43913 8 4.5v1.936h0.04c0.09155 -0.98694 0.54833 -1.90412 1.28085 -2.57184C10.0534 3.19645 11.0088 2.82633 12 2.82633c0.9912 0 1.9466 0.37012 2.6791 1.03783 0.7326 0.66772 1.1894 1.5849 1.2809 2.57184H16V4.5c0 -1.06087 -0.4214 -2.07828 -1.1716 -2.82843C14.0783 0.921427 13.0609 0.5 12 0.5Z" stroke-width="1"></path><path stroke="#191919" stroke-linecap="round" stroke-linejoin="round" d="M16 6.436V4.5c0 -1.06087 -0.4214 -2.07828 -1.1716 -2.82843C14.0783 0.921427 13.0609 0.5 12 0.5c-1.0609 0 -2.07828 0.421427 -2.82843 1.17157C8.42143 2.42172 8 3.43913 8 4.5v1.936" stroke-width="1"></path><path fill="#ffbfc5" d="M12 23.5c4.9706 0 9 -4.0294 9 -9 0 -4.97056 -4.0294 -9 -9 -9 -4.97056 0 -9 4.02944 -9 9 0 4.9706 4.02944 9 9 9Z" stroke-width="1"></path><path fill="#ff808c" d="M12 19.115c-2.00398 -0.002 -3.94996 -0.6728 -5.52954 -1.906S3.76808 14.2506 3.28 12.307c-0.33946 1.3289 -0.3707 2.7179 -0.09131 4.0607 0.27938 1.3428 0.86199 2.6041 1.70332 3.6873 0.84132 1.0833 1.91911 1.9599 3.15103 2.5629 1.23191 0.6031 2.58536 0.9166 3.95696 0.9166s2.725 -0.3135 3.957 -0.9166c1.2319 -0.603 2.3097 -1.4796 3.151 -2.5629 0.8413 -1.0832 1.4239 -2.3445 1.7033 -3.6873 0.2794 -1.3428 0.2482 -2.7318 -0.0913 -4.0607 -0.4881 1.9436 -1.6109 3.6688 -3.1905 4.902C15.95 18.4422 14.004 19.113 12 19.115Z" stroke-width="1"></path><path stroke="#191919" stroke-linecap="round" stroke-linejoin="round" d="M9.115 1.73 8.5 0.5" stroke-width="1"></path><path stroke="#191919" stroke-linecap="round" stroke-linejoin="round" d="M14.885 1.73 15.5 0.5" stroke-width="1"></path><path fill="#808080" stroke="#191919" stroke-linecap="round" stroke-linejoin="round" d="M12 18c1.933 0 3.5 -1.567 3.5 -3.5S13.933 11 12 11s-3.5 1.567 -3.5 3.5S10.067 18 12 18Z" stroke-width="1"></path><path fill="#6b6b6b" d="M17.319 21.75c-0.332 -0.4416 -0.5085 -0.9807 -0.5017 -1.5331 0.0067 -0.5524 0.1962 -1.087 0.539 -1.5203 0.3427 -0.4333 0.8193 -0.7409 1.3553 -0.8747 0.536 -0.1338 1.1012 -0.0863 1.6074 0.1351" stroke-width="1"></path><path stroke="#191919" stroke-linecap="round" stroke-linejoin="round" d="M17.319 21.75c-0.332 -0.4416 -0.5085 -0.9807 -0.5017 -1.5331 0.0067 -0.5524 0.1962 -1.087 0.539 -1.5203 0.3427 -0.4333 0.8193 -0.7409 1.3553 -0.8747 0.536 -0.1338 1.1012 -0.0863 1.6074 0.1351" stroke-width="1"></path><path fill="#808080" d="M20.286 10.98c-0.3267 0.1443 -0.6789 0.2218 -1.036 0.228 -0.4643 0 -0.9194 -0.1293 -1.3143 -0.3734 -0.395 -0.2441 -0.7141 -0.5933 -0.9218 -1.00856 -0.2076 -0.41526 -0.2955 -0.88014 -0.2538 -1.34255 0.0417 -0.4624 0.2113 -0.90406 0.4899 -1.27548" stroke-width="1"></path><path stroke="#191919" stroke-linecap="round" stroke-linejoin="round" d="M20.286 10.98c-0.3267 0.1443 -0.6789 0.2218 -1.036 0.228 -0.4643 0 -0.9194 -0.1293 -1.3143 -0.3734 -0.395 -0.2441 -0.7141 -0.5933 -0.9218 -1.00856 -0.2076 -0.41526 -0.2955 -0.88014 -0.2538 -1.34255 0.0417 -0.4624 0.2113 -0.90406 0.4899 -1.27548" stroke-width="1"></path><path fill="#6b6b6b" d="M6.71901 21.789c0.33614 -0.4443 0.52243 -0.9839 0.532 -1.541 0 -0.663 -0.26339 -1.2989 -0.73223 -1.7677 -0.46884 -0.4689 -1.10473 -0.7323 -1.76777 -0.7323 -0.36215 0.0077 -0.71926 0.0866 -1.051 0.232" stroke-width="1"></path><path stroke="#191919" stroke-linecap="round" stroke-linejoin="round" d="M6.71901 21.789c0.33614 -0.4443 0.52243 -0.9839 0.532 -1.541 0 -0.663 -0.26339 -1.2989 -0.73223 -1.7677 -0.46884 -0.4689 -1.10473 -0.7323 -1.76777 -0.7323 -0.36215 0.0077 -0.71926 0.0866 -1.051 0.232" stroke-width="1"></path><path fill="#808080" d="M3.71301 10.983c0.32719 0.1435 0.67979 0.22 1.037 0.225 0.46428 0 0.91939 -0.1293 1.31433 -0.3734 0.39494 -0.2441 0.71411 -0.5933 0.92174 -1.00856 0.20763 -0.41526 0.29553 -0.88014 0.25383 -1.34255 -0.04169 -0.4624 -0.21133 -0.90406 -0.4899 -1.27548" stroke-width="1"></path><path stroke="#191919" stroke-linecap="round" stroke-linejoin="round" d="M3.71301 10.983c0.32719 0.1435 0.67979 0.22 1.037 0.225 0.46428 0 0.91939 -0.1293 1.31433 -0.3734 0.39494 -0.2441 0.71411 -0.5933 0.92174 -1.00856 0.20763 -0.41526 0.29553 -0.88014 0.25383 -1.34255 -0.04169 -0.4624 -0.21133 -0.90406 -0.4899 -1.27548" stroke-width="1"></path><path stroke="#191919" stroke-linecap="round" stroke-linejoin="round" d="M18.383 8.156 20 6h1.5" stroke-width="1"></path><path stroke="#191919" stroke-linecap="round" stroke-linejoin="round" d="M18.391 20.837 19.5 22.5H21" stroke-width="1"></path><path stroke="#191919" stroke-linecap="round" stroke-linejoin="round" d="M5.617 8.156 4 6H2.5" stroke-width="1"></path><path stroke="#191919" stroke-linecap="round" stroke-linejoin="round" d="M5.609 20.837 4.5 22.5H3" stroke-width="1"></path><path stroke="#191919" stroke-linecap="round" stroke-linejoin="round" d="M20.678 12.107 22.5 11.5" stroke-width="1"></path><path stroke="#191919" stroke-linecap="round" stroke-linejoin="round" d="M20.792 16.431 22.5 17" stroke-width="1"></path><path stroke="#191919" stroke-linecap="round" stroke-linejoin="round" d="M3.322 12.107 1.5 11.5" stroke-width="1"></path><path stroke="#191919" stroke-linecap="round" stroke-linejoin="round" d="M3.208 16.431 1.5 17" stroke-width="1"></path><path stroke="#191919" stroke-linecap="round" stroke-linejoin="round" d="M10.25 3c0.0663 0 0.1299 0.02634 0.1768 0.07322 0.0469 0.04689 0.0732 0.11048 0.0732 0.17678" stroke-width="1"></path><path stroke="#191919" stroke-linecap="round" stroke-linejoin="round" d="M10 3.25c0 -0.0663 0.0263 -0.12989 0.0732 -0.17678C10.1201 3.02634 10.1837 3 10.25 3" stroke-width="1"></path><path stroke="#191919" stroke-linecap="round" stroke-linejoin="round" d="M10.25 3.5c-0.0663 0 -0.1299 -0.02634 -0.1768 -0.07322C10.0263 3.37989 10 3.3163 10 3.25" stroke-width="1"></path><path stroke="#191919" stroke-linecap="round" stroke-linejoin="round" d="M10.5 3.25c0 0.0663 -0.0263 0.12989 -0.0732 0.17678 -0.0469 0.04688 -0.1105 0.07322 -0.1768 0.07322" stroke-width="1"></path><path stroke="#191919" stroke-linecap="round" stroke-linejoin="round" d="M13.75 3c0.0663 0 0.1299 0.02634 0.1768 0.07322 0.0469 0.04689 0.0732 0.11048 0.0732 0.17678" stroke-width="1"></path><path stroke="#191919" stroke-linecap="round" stroke-linejoin="round" d="M13.5 3.25c0 -0.0663 0.0263 -0.12989 0.0732 -0.17678C13.6201 3.02634 13.6837 3 13.75 3" stroke-width="1"></path><path stroke="#191919" stroke-linecap="round" stroke-linejoin="round" d="M13.75 3.5c-0.0663 0 -0.1299 -0.02634 -0.1768 -0.07322C13.5263 3.37989 13.5 3.3163 13.5 3.25" stroke-width="1"></path><path stroke="#191919" stroke-linecap="round" stroke-linejoin="round" d="M14 3.25c0 0.0663 -0.0263 0.12989 -0.0732 0.17678 -0.0469 0.04688 -0.1105 0.07322 -0.1768 0.07322" stroke-width="1"></path><path stroke="#191919" stroke-linecap="round" stroke-linejoin="round" d="M12 23.5c4.9706 0 9 -4.0294 9 -9 0 -4.97056 -4.0294 -9 -9 -9 -4.97056 0 -9 4.02944 -9 9 0 4.9706 4.02944 9 9 9Z" stroke-width="1"></path><path stroke="#191919" stroke-linecap="round" stroke-linejoin="round" d="M12 5.5v18" stroke-width="1"></path></svg>