<svg xmlns="http://www.w3.org/2000/svg" fill="none" viewBox="0 0 24 24" id="Study-Owl--Streamline-Ultimate.svg"><desc>Study Owl Streamline Icon: https://streamlinehq.com</desc><path fill="#ffdda1" d="M20.5 14.47v2c0 0.6566 -0.1293 1.3068 -0.3806 1.9134 -0.2513 0.6066 -0.6196 1.1578 -1.0839 1.6221 -0.4643 0.4643 -1.0155 0.8326 -1.6221 1.0839 -0.6066 0.2513 -1.2568 0.3806 -1.9134 0.3806h-0.34c-0.9252 0.6507 -2.0288 1 -3.16 1 -1.1312 0 -2.23475 -0.3493 -3.16 -1H8.5c-1.32608 0 -2.59785 -0.5268 -3.53553 -1.4645C4.02678 19.0679 3.5 17.7961 3.5 16.47v-2c0 -0.7956 0.31607 -1.5587 0.87868 -2.1213 0.56261 -0.5626 1.32567 -0.8787 2.12132 -0.8787H7c0.23238 0.311 0.53424 0.5634 0.88149 0.737 0.34725 0.1736 0.73027 0.2637 1.11851 0.263 0.29012 0.0024 0.57821 -0.0485 0.85 -0.15L12 14.47l2.15 -2.15c0.2718 0.1015 0.5599 0.1524 0.85 0.15 0.3882 0.0007 0.7713 -0.0894 1.1185 -0.263 0.3473 -0.1736 0.6491 -0.426 0.8815 -0.737h0.5c0.7956 0 1.5587 0.3161 2.1213 0.8787 0.5626 0.5626 0.8787 1.3257 0.8787 2.1213Z" stroke-width="1"></path><path fill="#ffbc44" d="M15.5 18.768h-0.34c-0.9252 0.6507 -2.0288 1 -3.16 1 -1.1312 0 -2.23475 -0.3493 -3.16 -1H8.5c-1.2624 -0.0029 -2.47673 -0.4844 -3.39813 -1.3473 -0.9214 -0.863 -1.48133 -2.0432 -1.56687 -3.3027 -0.01829 0.1166 -0.02998 0.2341 -0.035 0.352v2c0 1.3261 0.52678 2.5978 1.46447 3.5355C5.90215 20.9432 7.17392 21.47 8.5 21.47h0.34c0.92525 0.6507 2.0288 1 3.16 1 1.1312 0 2.2348 -0.3493 3.16 -1h0.34c0.6566 0 1.3068 -0.1293 1.9134 -0.3806 0.6066 -0.2513 1.1578 -0.6196 1.6221 -1.0839 0.4643 -0.4643 0.8326 -1.0155 1.0839 -1.6221 0.2513 -0.6066 0.3806 -1.2568 0.3806 -1.9134v-2c-0.005 -0.1179 -0.0167 -0.2354 -0.035 -0.352 -0.0855 1.2595 -0.6455 2.4397 -1.5669 3.3027 -0.9214 0.8629 -2.1357 1.3444 -3.3981 1.3473Z" stroke-width="1"></path><path stroke="#191919" stroke-linecap="round" stroke-linejoin="round" d="M20.5 14.47v2c0 0.6566 -0.1293 1.3068 -0.3806 1.9134 -0.2513 0.6066 -0.6196 1.1578 -1.0839 1.6221 -0.4643 0.4643 -1.0155 0.8326 -1.6221 1.0839 -0.6066 0.2513 -1.2568 0.3806 -1.9134 0.3806h-0.34c-0.9252 0.6507 -2.0288 1 -3.16 1 -1.1312 0 -2.23475 -0.3493 -3.16 -1H8.5c-1.32608 0 -2.59785 -0.5268 -3.53553 -1.4645C4.02678 19.0679 3.5 17.7961 3.5 16.47v-2c0 -0.7956 0.31607 -1.5587 0.87868 -2.1213 0.56261 -0.5626 1.32567 -0.8787 2.12132 -0.8787H7c0.23238 0.311 0.53424 0.5634 0.88149 0.737 0.34725 0.1736 0.73027 0.2637 1.11851 0.263 0.29012 0.0024 0.57821 -0.0485 0.85 -0.15L12 14.47l2.15 -2.15c0.2718 0.1015 0.5599 0.1524 0.85 0.15 0.3882 0.0007 0.7713 -0.0894 1.1185 -0.263 0.3473 -0.1736 0.6491 -0.426 0.8815 -0.737h0.5c0.7956 0 1.5587 0.3161 2.1213 0.8787 0.5626 0.5626 0.8787 1.3257 0.8787 2.1213v0Z" stroke-width="1"></path><path fill="#66e1ff" stroke="#191919" stroke-linecap="round" stroke-linejoin="round" d="m17.89 4.2 -1.39 0.53v0.01l-4.14 1.59c-0.2316 0.08997 -0.4884 0.08997 -0.72 0L7.5 4.74l-2 -0.77 6.14 -2.37c0.2316 -0.08998 0.4884 -0.08998 0.72 0l5.53 2.13c0.0483 0.01752 0.09 0.04947 0.1194 0.09151 0.0295 0.04205 0.0453 0.09214 0.0453 0.14349 0 0.05134 -0.0158 0.10144 -0.0453 0.14348 -0.0294 0.04205 -0.0711 0.074 -0.1194 0.09152Z" stroke-width="1"></path><path fill="#ffef5e" stroke="#191919" stroke-linecap="round" stroke-linejoin="round" d="M16.5 4.74v3.23c-0.2875 -0.21627 -0.6184 -0.36793 -0.9699 -0.44461 -0.3515 -0.07668 -0.7155 -0.07658 -1.067 0.00029 -0.3514 0.07687 -0.6822 0.2287 -0.9696 0.44512 -0.2874 0.21642 -0.5248 0.49233 -0.6958 0.80889 -0.171 0.31655 -0.2717 0.66629 -0.2951 1.02532 -0.0235 0.35899 0.0309 0.71889 0.1592 1.05499 0.1284 0.3361 0.3278 0.6406 0.5847 0.8925 0.2568 0.252 0.565 0.4456 0.9035 0.5675L12 14.47l-2.15 -2.15c0.3385 -0.1219 0.6467 -0.3155 0.9035 -0.5675 0.2569 -0.2519 0.4563 -0.5564 0.5847 -0.8925 0.1283 -0.3361 0.1827 -0.696 0.1592 -1.05499 -0.0234 -0.35903 -0.1241 -0.70877 -0.2951 -1.02532 -0.171 -0.31656 -0.4084 -0.59247 -0.6958 -0.80889 -0.2874 -0.21642 -0.61816 -0.36825 -0.96965 -0.44512 -0.35148 -0.07687 -0.71542 -0.07697 -1.06695 -0.00029 -0.35153 0.07668 -0.68236 0.22834 -0.9699 0.44461V4.74l4.14 1.59c0.2316 0.08997 0.4884 0.08997 0.72 0l4.14 -1.59Z" stroke-width="1"></path><path stroke="#191919" stroke-linecap="round" stroke-linejoin="round" d="M7.5 4.74v-0.01" stroke-width="1"></path><path stroke="#191919" stroke-linecap="round" stroke-linejoin="round" d="M5.5 3.966v3.5" stroke-width="1"></path><path fill="#ffffff" stroke="#191919" stroke-linecap="round" stroke-linejoin="round" d="M17.5 9.97c-0.0019 0.5406 -0.1771 1.0664 -0.5 1.5 -0.2324 0.311 -0.5342 0.5634 -0.8815 0.737 -0.3472 0.1736 -0.7303 0.2637 -1.1185 0.263 -0.2901 0.0024 -0.5782 -0.0485 -0.85 -0.15 -0.4304 -0.1556 -0.8098 -0.4263 -1.0968 -0.7827 -0.2871 -0.3564 -0.4709 -0.7847 -0.5313 -1.2383 -0.0604 -0.45364 0.0048 -0.91514 0.1886 -1.33422 0.1838 -0.41909 0.4792 -0.77968 0.8538 -1.04249 0.3746 -0.2628 0.8142 -0.41774 1.2708 -0.44791 0.4567 -0.03018 0.9128 0.06556 1.3188 0.27678 0.406 0.21121 0.7462 0.52981 0.9835 0.92106 0.2374 0.39126 0.3628 0.84015 0.3626 1.29778Z" stroke-width="1"></path><path fill="#ffffff" stroke="#191919" stroke-linecap="round" stroke-linejoin="round" d="M11.5 9.97c-0.0011 0.5136 -0.1599 1.0144 -0.4551 1.4348 -0.2951 0.4203 -0.7122 0.7398 -1.1949 0.9152 -0.27179 0.1015 -0.55988 0.1524 -0.85 0.15 -0.38824 0.0007 -0.77126 -0.0894 -1.11851 -0.263 -0.34725 -0.1736 -0.64911 -0.426 -0.88149 -0.737 -0.32289 -0.4336 -0.49815 -0.9594 -0.5 -1.5 0 -0.66304 0.26339 -1.29892 0.73223 -1.76777C7.70107 7.73339 8.33696 7.47 9 7.47c0.66304 0 1.2989 0.26339 1.7678 0.73223 0.4688 0.46885 0.7322 1.10473 0.7322 1.76777v0Z" stroke-width="1"></path><path stroke="#191919" stroke-linecap="round" stroke-linejoin="round" d="M9 9.466c-0.13261 0 -0.25979 0.05268 -0.35355 0.14645C8.55268 9.70622 8.5 9.8334 8.5 9.966" stroke-width="1"></path><path stroke="#191919" stroke-linecap="round" stroke-linejoin="round" d="M9.5 9.966c0 -0.1326 -0.05268 -0.25978 -0.14645 -0.35355C9.25979 9.51868 9.13261 9.466 9 9.466" stroke-width="1"></path><path stroke="#191919" stroke-linecap="round" stroke-linejoin="round" d="M9 10.466c0.13261 0 0.25979 -0.0527 0.35355 -0.1464 0.09377 -0.0938 0.14645 -0.221 0.14645 -0.3536" stroke-width="1"></path><path stroke="#191919" stroke-linecap="round" stroke-linejoin="round" d="M8.5 9.966c0 0.1326 0.05268 0.2598 0.14645 0.3536 0.09376 0.0937 0.22094 0.1464 0.35355 0.1464" stroke-width="1"></path><path stroke="#191919" stroke-linecap="round" stroke-linejoin="round" d="M15 9.466c-0.1326 0 -0.2598 0.05268 -0.3536 0.14645 -0.0937 0.09377 -0.1464 0.22095 -0.1464 0.35355" stroke-width="1"></path><path stroke="#191919" stroke-linecap="round" stroke-linejoin="round" d="M15.5 9.966c0 -0.1326 -0.0527 -0.25978 -0.1464 -0.35355 -0.0938 -0.09377 -0.221 -0.14645 -0.3536 -0.14645" stroke-width="1"></path><path stroke="#191919" stroke-linecap="round" stroke-linejoin="round" d="M15 10.466c0.1326 0 0.2598 -0.0527 0.3536 -0.1464 0.0937 -0.0938 0.1464 -0.221 0.1464 -0.3536" stroke-width="1"></path><path stroke="#191919" stroke-linecap="round" stroke-linejoin="round" d="M14.5 9.966c0 0.1326 0.0527 0.2598 0.1464 0.3536 0.0938 0.0937 0.221 0.1464 0.3536 0.1464" stroke-width="1"></path><path stroke="#191919" stroke-linecap="round" stroke-linejoin="round" d="M6.5 13.72v3.25c-0.00091 0.883 0.21134 1.7532 0.61873 2.5367 0.40739 0.7834 0.99787 1.4569 1.72127 1.9633" stroke-width="1"></path><path stroke="#191919" stroke-linecap="round" stroke-linejoin="round" d="M17.5 13.72v3.25c0.0009 0.883 -0.2113 1.7532 -0.6187 2.5367 -0.4074 0.7834 -0.9979 1.4569 -1.7213 1.9633" stroke-width="1"></path></svg>