<svg xmlns="http://www.w3.org/2000/svg" fill="none" viewBox="0 0 24 24" id="Book-Library-1--Streamline-Ultimate.svg"><desc>Book Library 1 Streamline Icon: https://streamlinehq.com</desc><path fill="#e3e3e3" d="M23.5 1.5v11H0.5v-11c0 -0.26522 0.105357 -0.51957 0.292893 -0.707107C0.98043 0.605357 1.23478 0.5 1.5 0.5h21c0.2652 0 0.5196 0.105357 0.7071 0.292893 0.1875 0.187537 0.2929 0.441887 0.2929 0.707107Z" stroke-width="1"></path><path fill="#b2b2b2" d="M22.5 0.5h-21C1.23478 0.5 0.98043 0.605357 0.792893 0.792893 0.605357 0.98043 0.5 1.23478 0.5 1.5v3.2c0 -0.26522 0.105357 -0.51957 0.292893 -0.70711C0.98043 3.80536 1.23478 3.7 1.5 3.7h21c0.2652 0 0.5196 0.10536 0.7071 0.29289 0.1875 0.18754 0.2929 0.44189 0.2929 0.70711V1.5c0 -0.26522 -0.1054 -0.51957 -0.2929 -0.707107C23.0196 0.605357 22.7652 0.5 22.5 0.5Z" stroke-width="1"></path><path stroke="#191919" stroke-linecap="round" stroke-linejoin="round" d="M23.5 1.5v11H0.5v-11c0 -0.26522 0.105357 -0.51957 0.292893 -0.707107C0.98043 0.605357 1.23478 0.5 1.5 0.5h21c0.2652 0 0.5196 0.105357 0.7071 0.292893 0.1875 0.187537 0.2929 0.441887 0.2929 0.707107Z" stroke-width="1"></path><path fill="#e3e3e3" d="M23.5 12.5v10c0 0.2652 -0.1054 0.5196 -0.2929 0.7071s-0.4419 0.2929 -0.7071 0.2929h-21c-0.26522 0 -0.51957 -0.1054 -0.707107 -0.2929C0.605357 23.0196 0.5 22.7652 0.5 22.5v-10h23Z" stroke-width="1"></path><path fill="#b2b2b2" d="M23.5 12.499H0.5v2.836h23v-2.836Z" stroke-width="1"></path><path stroke="#191919" stroke-linecap="round" stroke-linejoin="round" d="M23.5 12.5v10c0 0.2652 -0.1054 0.5196 -0.2929 0.7071s-0.4419 0.2929 -0.7071 0.2929h-21c-0.26522 0 -0.51957 -0.1054 -0.707107 -0.2929C0.605357 23.0196 0.5 22.7652 0.5 22.5v-10h23Z" stroke-width="1"></path><path fill="#ffbc44" stroke="#191919" stroke-linecap="round" stroke-linejoin="round" d="M7.5 23.5h-4V15c0 -0.1326 0.05268 -0.2598 0.14645 -0.3536 0.09376 -0.0937 0.22094 -0.1464 0.35355 -0.1464h3c0.13261 0 0.25979 0.0527 0.35355 0.1464 0.09377 0.0938 0.14645 0.221 0.14645 0.3536v8.5Z" stroke-width="1"></path><path fill="#ffffff" stroke="#191919" stroke-linecap="round" stroke-linejoin="round" d="M13.5 4.5h3v8h-3v-8Z" stroke-width="1"></path><path fill="#b2ffc0" stroke="#191919" stroke-linecap="round" stroke-linejoin="round" d="m19.284 12.5 -3.122 -9.093c-0.043 -0.12545 -0.0343 -0.26282 0.024 -0.38191 0.0583 -0.11908 0.1616 -0.21012 0.287 -0.25309l1.892 -0.65c0.1255 -0.04296 0.2628 -0.03433 0.3819 0.024 0.1191 0.05832 0.2101 0.16155 0.2531 0.287L22.456 12.5h-3.172Z" stroke-width="1"></path><path fill="#ff808c" stroke="#191919" stroke-linecap="round" stroke-linejoin="round" d="M13.5 12.5h-4V4c0 -0.13261 0.05268 -0.25979 0.14645 -0.35355C9.74021 3.55268 9.86739 3.5 10 3.5h3c0.1326 0 0.2598 0.05268 0.3536 0.14645 0.0937 0.09376 0.1464 0.22094 0.1464 0.35355v8.5Z" stroke-width="1"></path><path fill="#ffbc44" stroke="#191919" stroke-linecap="round" stroke-linejoin="round" d="M11.5 23.5h-4V15c0 -0.1326 0.05268 -0.2598 0.14645 -0.3536 0.09376 -0.0937 0.22094 -0.1464 0.35355 -0.1464h3c0.1326 0 0.2598 0.0527 0.3536 0.1464 0.0937 0.0938 0.1464 0.221 0.1464 0.3536v8.5Z" stroke-width="1"></path><path fill="#66e1ff" stroke="#191919" stroke-linecap="round" stroke-linejoin="round" d="M20.5 23.5h-3V15c0 -0.1326 0.0527 -0.2598 0.1464 -0.3536 0.0938 -0.0937 0.221 -0.1464 0.3536 -0.1464h2c0.1326 0 0.2598 0.0527 0.3536 0.1464 0.0937 0.0938 0.1464 0.221 0.1464 0.3536v8.5Z" stroke-width="1"></path><path fill="#b2ffc0" stroke="#191919" stroke-linecap="round" stroke-linejoin="round" d="M17.5 23.5h-3V16c0 -0.1326 0.0527 -0.2598 0.1464 -0.3536 0.0938 -0.0937 0.221 -0.1464 0.3536 -0.1464h2c0.1326 0 0.2598 0.0527 0.3536 0.1464 0.0937 0.0938 0.1464 0.221 0.1464 0.3536v7.5Z" stroke-width="1"></path><path stroke="#191919" stroke-linecap="round" stroke-linejoin="round" d="M5.5 17.5v3" stroke-width="1"></path><path stroke="#191919" stroke-linecap="round" stroke-linejoin="round" d="M9.5 17.5v3" stroke-width="1"></path></svg>