<svg xmlns="http://www.w3.org/2000/svg" fill="none" viewBox="0 0 25 25" id="Rabbit-Running--Streamline-Ultimate.svg"><desc>Rabbit Running Streamline Icon: https://streamlinehq.com</desc><path fill="#ffffff" d="M10.4979 20.1543C8.9263 17.6029 5.987 16.1128 3.9459 14.7147S0.527 10.1843 2.2915 7.9074C4.5878 4.9478 9.0069 6.1215 10.4255 7.7544L14.3547 11.6836C14.4962 11.8266 14.6646 11.9402 14.8503 12.0176C15.036 12.0952 15.2352 12.1351 15.4365 12.1351C15.6377 12.1351 15.8369 12.0952 16.0226 12.0176C16.2083 11.9402 16.3767 11.8266 16.5183 11.6836C16.8027 11.3954 16.9622 11.0066 16.9622 10.6018C16.9622 10.1968 16.8027 9.8082 16.5183 9.5199L10.3948 3.3761C10.1244 3.0859 9.9772 2.7021 9.9842 2.3055C9.9912 1.9089 10.1519 1.5305 10.4324 1.25C10.7128 0.9696 11.0913 0.8089 11.4879 0.8019C11.8845 0.7949 12.2683 0.9421 12.5584 1.2125L23.0193 11.6734H23.0295C23.4366 12.027 23.7569 12.4696 23.9657 12.9669C24.1746 13.4642 24.2663 14.0028 24.2337 14.5412C24.2337 16.072 23.2132 17.0926 21.172 17.0926H18.6206L16.059 18.8888L14.3445 20.0829C14.7323 21.2565 15.0486 22.1954 15.0486 22.1954H19.1309C19.4016 22.1954 19.6612 22.3029 19.8526 22.4944C20.0439 22.6857 20.1515 22.9452 20.1515 23.216C20.1515 23.4866 20.0439 23.7462 19.8526 23.9376C19.6612 24.129 19.4016 24.2366 19.1309 24.2366H13.0075S12.4258 23.2874 11.7522 22.1954L10.4979 20.1543Z" stroke-width="1"></path><path fill="#ffffff" d="M1.9731 8.385C1.7006 8.3271 1.449 8.196 1.2455 8.0057C1.042 7.8153 0.8943 7.5731 0.8183 7.305C0.7423 7.037 0.7409 6.7533 0.8143 6.4845C0.8877 6.2157 1.033 5.972 1.2346 5.7797C1.4363 5.5874 1.6865 5.4538 1.9585 5.3933C2.2305 5.3327 2.5138 5.3476 2.778 5.4362C3.0421 5.5248 3.2771 5.6838 3.4575 5.8961C3.638 6.1084 3.7571 6.3659 3.802 6.6409" stroke-width="1"></path><path stroke="#191919" stroke-linecap="round" stroke-linejoin="round" d="M1.9731 8.385C1.7006 8.3271 1.449 8.196 1.2455 8.0057C1.042 7.8153 0.8943 7.5731 0.8183 7.305C0.7423 7.037 0.7409 6.7533 0.8143 6.4845C0.8877 6.2157 1.033 5.972 1.2346 5.7797C1.4363 5.5874 1.6865 5.4538 1.9585 5.3933C2.2305 5.3327 2.5138 5.3476 2.778 5.4362C3.0421 5.5248 3.2771 5.6838 3.4575 5.8961C3.638 6.1084 3.7571 6.3659 3.802 6.6409" stroke-width="1"></path><path fill="#e3e3e3" d="M23.0305 11.6743H23.0203L22.6621 11.3161C22.762 11.7026 22.81 12.1007 22.8049 12.4999C22.8049 14.0308 21.7844 15.0514 19.7432 15.0514H17.1918L14.6302 16.8476L13.528 17.614C13.8209 18.5009 14.2108 19.6664 14.3843 20.1838L14.3506 20.0817L16.0651 18.8877L18.6206 17.0925H21.172C23.2132 17.0925 24.2337 16.0719 24.2337 14.5411C24.2662 14.0029 24.1747 13.4646 23.9661 12.9676C23.7573 12.4704 23.4373 12.0279 23.0305 11.6743Z" stroke-width="1"></path><path fill="#e3e3e3" d="M11.7532 22.1953H6.8841C6.6134 22.1953 6.3538 22.0878 6.1624 21.8964C5.9711 21.705 5.8635 21.4454 5.8635 21.1748C5.8635 20.9041 5.9711 20.6445 6.1624 20.4531C6.3538 20.2618 6.6134 20.1542 6.8841 20.1542H10.4969L11.7532 22.1953Z" stroke-width="1"></path><path stroke="#191919" stroke-linecap="round" stroke-linejoin="round" d="M21.172 13.7756C21.2397 13.7756 21.3046 13.8025 21.3525 13.8504C21.4003 13.8982 21.4272 13.9631 21.4272 14.0308" stroke-width="1"></path><path stroke="#191919" stroke-linecap="round" stroke-linejoin="round" d="M20.9169 14.0308C20.9169 13.9631 20.9437 13.8982 20.9916 13.8503C21.0395 13.8025 21.1044 13.7756 21.1721 13.7756" stroke-width="1"></path><path stroke="#191919" stroke-linecap="round" stroke-linejoin="round" d="M21.172 14.2859C21.1044 14.2859 21.0395 14.2591 20.9916 14.2112C20.9437 14.1634 20.9169 14.0985 20.9169 14.0308" stroke-width="1"></path><path stroke="#191919" stroke-linecap="round" stroke-linejoin="round" d="M21.4272 14.0308C21.4272 14.0984 21.4003 14.1634 21.3525 14.2112C21.3046 14.2591 21.2397 14.2859 21.172 14.2859" stroke-width="1"></path><path stroke="#191919" stroke-linecap="round" stroke-linejoin="round" d="M9.4355 22.1953H6.8841C6.6134 22.1953 6.3538 22.0878 6.1624 21.8964C5.9711 21.705 5.8635 21.4454 5.8635 21.1748C5.8635 20.9041 5.9711 20.6445 6.1624 20.4531C6.3538 20.2618 6.6134 20.1542 6.8841 20.1542H7.9047" stroke-width="1"></path><path stroke="#191919" stroke-linecap="round" stroke-linejoin="round" d="M7.9047 10.9691C9.9458 10.9691 11.8277 12.4999 13.0075 16.0719L15.0486 22.1953H19.1309C19.4016 22.1953 19.6612 22.3028 19.8526 22.4942C20.0439 22.6856 20.1515 22.9451 20.1515 23.2159C20.1515 23.4866 20.0439 23.7461 19.8526 23.9375C19.6612 24.1289 19.4016 24.2365 19.1309 24.2365H13.0075S11.4532 21.7004 10.4989 20.1542C8.9252 17.6028 5.9911 16.1138 3.95 14.7105C1.9088 13.3072 0.529 10.1791 2.2915 7.9073C4.5868 4.9477 9.0099 6.1214 10.4224 7.7543L14.3506 11.6835C14.4918 11.8296 14.6607 11.9463 14.8475 12.0265S15.2351 12.149 15.4384 12.1507C15.6417 12.1525 15.8432 12.1138 16.0313 12.0368C16.2195 11.9598 16.3905 11.8462 16.5342 11.7024C16.6779 11.5587 16.7916 11.3877 16.8685 11.1996C16.9456 11.0114 16.9842 10.8099 16.9825 10.6067C16.9807 10.4034 16.9385 10.2025 16.8583 10.0157C16.778 9.8289 16.6614 9.66 16.5152 9.5188L10.3918 3.3781C10.1046 3.0907 9.9433 2.7011 9.9434 2.2949C9.9435 1.8886 10.105 1.4991 10.3923 1.2119C10.6796 0.9247 11.0692 0.7634 11.4755 0.7635C11.8817 0.7636 12.2713 0.9251 12.5584 1.2124L23.0213 11.6753C23.4298 12.0278 23.7517 12.4697 23.962 12.9666C24.1722 13.4637 24.2652 14.0023 24.2338 14.5411C24.2338 16.0719 23.2132 17.0925 21.1721 17.0925H18.6206L16.0631 18.8846" stroke-width="1"></path><path stroke="#191919" stroke-linecap="round" stroke-linejoin="round" d="M7.9047 10.9691C9.9458 10.9691 11.8277 12.4999 13.0075 16.0719L15.0486 22.1953H19.1309C19.4016 22.1953 19.6612 22.3028 19.8526 22.4942C20.0439 22.6856 20.1515 22.9451 20.1515 23.2159C20.1515 23.4866 20.0439 23.7461 19.8526 23.9375C19.6612 24.1289 19.4016 24.2365 19.1309 24.2365H13.0075S11.4532 21.7004 10.4989 20.1542C8.9252 17.6028 5.9911 16.1138 3.95 14.7105C1.9088 13.3072 0.529 10.1791 2.2915 7.9073C4.5868 4.9477 9.0099 6.1214 10.4224 7.7543L14.3506 11.6835C14.4918 11.8296 14.6607 11.9463 14.8475 12.0265S15.2351 12.149 15.4384 12.1507C15.6417 12.1525 15.8432 12.1138 16.0313 12.0368C16.2195 11.9598 16.3905 11.8462 16.5342 11.7024C16.6779 11.5587 16.7916 11.3877 16.8685 11.1996C16.9456 11.0114 16.9842 10.8099 16.9825 10.6067C16.9807 10.4034 16.9385 10.2025 16.8583 10.0157C16.778 9.8289 16.6614 9.66 16.5152 9.5188L10.3918 3.3781C10.1046 3.0907 9.9433 2.7011 9.9434 2.2949C9.9435 1.8886 10.105 1.4991 10.3923 1.2119C10.6796 0.9247 11.0692 0.7634 11.4755 0.7635C11.8817 0.7636 12.2713 0.9251 12.5584 1.2124L23.0213 11.6753C23.4298 12.0278 23.7517 12.4697 23.962 12.9666C24.1722 13.4637 24.2652 14.0023 24.2338 14.5411C24.2338 16.0719 23.2132 17.0925 21.1721 17.0925H18.6206L16.0631 18.8846" stroke-width="1"></path></svg>