<svg xmlns="http://www.w3.org/2000/svg" fill="none" viewBox="0 0 24 24" id="Read-World--Streamline-Ultimate.svg"><desc>Read World Streamline Icon: https://streamlinehq.com</desc><path fill="#66e1ff" d="M12 15.501c4.1421 0 7.5 -3.3579 7.5 -7.49999 0 -4.14214 -3.3579 -7.500003 -7.5 -7.500003 -4.14214 0 -7.5 3.357863 -7.5 7.500003C4.5 12.1431 7.85786 15.501 12 15.501Z" stroke-width="1"></path><path fill="#78eb7b" d="M17.99 3.5h-2.709c-0.2231 0.00006 -0.4397 0.0747 -0.6155 0.21205 -0.1757 0.13735 -0.3005 0.32952 -0.3545 0.54595l-0.5 2c-0.0368 0.14738 -0.0395 0.3012 -0.0079 0.44979 0.0316 0.14858 0.0966 0.28802 0.1901 0.40773 0.0935 0.11971 0.213 0.21656 0.3495 0.28317 0.1365 0.06662 0.2864 0.10127 0.4383 0.10131h1.052l0.245 1.469s0.839 1.813 3.215 0.754c0.2581 -1.06897 0.2751 -2.18198 0.0497 -3.25833C19.1174 5.38832 18.6553 4.37562 17.99 3.5Z" stroke-width="1"></path><path fill="#78eb7b" d="M9.189 7.25901c-0.05398 -0.21644 -0.17877 -0.40861 -0.35454 -0.54595 -0.17576 -0.13735 -0.3924 -0.21199 -0.61546 -0.21205H4.651c-0.30003 1.47437 -0.14968 3.0049 0.43151 4.39269 0.5812 1.3878 1.56636 2.5687 2.82749 3.3893 0.83975 -0.2558 1.65049 -0.5987 2.419 -1.023l-0.7 -4.26499 -0.44 -1.736Z" stroke-width="1"></path><path fill="#e3e3e3" stroke="#191919" stroke-linecap="round" stroke-linejoin="round" d="M21 11.01v8.5c-0.0021 0.132 -0.0554 0.2579 -0.1487 0.3513 -0.0934 0.0933 -0.2193 0.1466 -0.3513 0.1487 -5.53 0.11 -8.5 2.03 -8.5 3.49V14c0 -1.45 2.96 -3.38 8.48 -3.49 0.0671 -0.0019 0.1339 0.0096 0.1966 0.0339 0.0626 0.0242 0.1197 0.0606 0.1681 0.1072 0.0484 0.0465 0.0871 0.1022 0.1138 0.1638 0.0266 0.0616 0.0407 0.128 0.0415 0.1951v0Z" stroke-width="1"></path><path fill="#ffffff" stroke="#191919" stroke-linecap="round" stroke-linejoin="round" d="M12 14v9.5c0 -1.46 -2.97 -3.38 -8.5 -3.49 -0.13197 -0.0021 -0.25795 -0.0554 -0.35127 -0.1487C3.0554 19.7679 3.00206 19.642 3 19.51v-8.5c0.00077 -0.0671 0.01489 -0.1335 0.04155 -0.1951 0.02665 -0.0616 0.06531 -0.1173 0.1137 -0.1638 0.0484 -0.0466 0.10558 -0.083 0.1682 -0.1072 0.06262 -0.0243 0.12943 -0.0358 0.19655 -0.0339C9.04 10.62 12 12.55 12 14Z" stroke-width="1"></path><path stroke="#191919" stroke-linecap="round" stroke-linejoin="round" d="M10 14.742c-1.44854 -0.5176 -2.95171 -0.8672 -4.48 -1.042" stroke-width="1"></path><path stroke="#191919" stroke-linecap="round" stroke-linejoin="round" d="M10 17.742c-1.46189 -0.5213 -2.97884 -0.8729 -4.521 -1.048" stroke-width="1"></path><path stroke="#191919" stroke-linecap="round" stroke-linejoin="round" d="M14 14.742c1.4624 -0.522 2.9801 -0.8737 4.523 -1.048" stroke-width="1"></path><path stroke="#191919" stroke-linecap="round" stroke-linejoin="round" d="M14 17.742c1.4627 -0.522 2.9807 -0.8736 4.524 -1.048" stroke-width="1"></path><path stroke="#191919" stroke-linecap="round" stroke-linejoin="round" d="M4.566 9c-0.14147 -1.05936 -0.0549 -2.13673 0.25391 -3.1599 0.30882 -1.02318 0.83275 -1.96854 1.53669 -2.77274 0.70394 -0.80419 1.57162 -1.44865 2.54492 -1.89019C9.87481 0.735625 10.9312 0.507202 12 0.507202s2.1252 0.228423 3.0985 0.669968c0.9733 0.44154 1.841 1.086 2.5449 1.89019 0.7039 0.8042 1.2279 1.74956 1.5367 2.77274 0.3088 1.02317 0.3954 2.10054 0.2539 3.1599" stroke-width="1"></path><path stroke="#191919" stroke-linecap="round" stroke-linejoin="round" d="m9.624 9.00001 -0.435 -1.741c-0.05398 -0.21644 -0.17877 -0.40861 -0.35454 -0.54595 -0.17576 -0.13735 -0.3924 -0.21199 -0.61546 -0.21205H4.651" stroke-width="1"></path><path stroke="#191919" stroke-linecap="round" stroke-linejoin="round" d="M17.99 3.5h-2.709c-0.2231 0.00006 -0.4397 0.0747 -0.6155 0.21205 -0.1757 0.13735 -0.3005 0.32952 -0.3545 0.54595l-0.5 2c-0.0368 0.14738 -0.0395 0.3012 -0.0079 0.44979 0.0316 0.14858 0.0966 0.28802 0.1901 0.40773 0.0935 0.11971 0.213 0.21656 0.3495 0.28317 0.1365 0.06662 0.2864 0.10127 0.4383 0.10131h1.052l0.245 1.469" stroke-width="1"></path></svg>