<svg xmlns="http://www.w3.org/2000/svg" fill="none" viewBox="0 0 24 24" id="Cloud-Server--Streamline-Ultimate.svg"><desc>Cloud Server Streamline Icon: https://streamlinehq.com</desc><path fill="#e3e3e3" d="M20.5 22c0 0.3978 -0.158 0.7794 -0.4393 1.0607S19.3978 23.5 19 23.5H5c-0.39782 0 -0.77936 -0.158 -1.06066 -0.4393C3.65804 22.7794 3.5 22.3978 3.5 22v-2c0 -0.3978 0.15804 -0.7794 0.43934 -1.0607S4.60218 18.5 5 18.5h14c0.3978 0 0.7794 0.158 1.0607 0.4393S20.5 19.6022 20.5 20v2Z" stroke-width="1"></path><path fill="#ffffff" d="M20.5 21v-1c0 -0.3978 -0.158 -0.7794 -0.4393 -1.0607S19.3978 18.5 19 18.5H5c-0.39782 0 -0.77936 0.158 -1.06066 0.4393C3.65804 19.2206 3.5 19.6022 3.5 20v1h17Z" stroke-width="1"></path><path stroke="#191919" stroke-linecap="round" stroke-linejoin="round" d="M20.5 22c0 0.3978 -0.158 0.7794 -0.4393 1.0607S19.3978 23.5 19 23.5H5c-0.39782 0 -0.77936 -0.158 -1.06066 -0.4393C3.65804 22.7794 3.5 22.3978 3.5 22v-2c0 -0.3978 0.15804 -0.7794 0.43934 -1.0607S4.60218 18.5 5 18.5h14c0.3978 0 0.7794 0.158 1.0607 0.4393S20.5 19.6022 20.5 20v2Z" stroke-width="1"></path><path fill="#e3e3e3" d="M20.5 17c0 0.3978 -0.158 0.7794 -0.4393 1.0607S19.3978 18.5 19 18.5H5c-0.39782 0 -0.77936 -0.158 -1.06066 -0.4393C3.65804 17.7794 3.5 17.3978 3.5 17v-2c0 -0.3978 0.15804 -0.7794 0.43934 -1.0607S4.60218 13.5 5 13.5h14c0.3978 0 0.7794 0.158 1.0607 0.4393S20.5 14.6022 20.5 15v2Z" stroke-width="1"></path><path fill="#ffffff" d="M20.5 16v-1c0 -0.3978 -0.158 -0.7794 -0.4393 -1.0607S19.3978 13.5 19 13.5H5c-0.39782 0 -0.77936 0.158 -1.06066 0.4393C3.65804 14.2206 3.5 14.6022 3.5 15v1h17Z" stroke-width="1"></path><path fill="#ffffff" d="M20.5 6.92704c-0.0083 -0.4882 -0.115 -0.96972 -0.3136 -1.41575 -0.1987 -0.44603 -0.4853 -0.84741 -0.8426 -1.18013 -0.3574 -0.33272 -0.7782 -0.58994 -1.2373 -0.75629 -0.459 -0.16634 -0.9469 -0.23839 -1.4345 -0.21183 -0.4336 -0.86598 -1.1011 -1.59319 -1.9268 -2.09921C13.9194 0.757807 12.9684 0.493217 12 0.500044 10.704 0.481321 9.44942 0.956779 8.49134 1.82979 7.53326 2.7028 6.94353 3.90785 6.842 5.20004c-0.39644 -0.08769 -0.80738 -0.08648 -1.20329 0.00355 -0.39592 0.09003 -0.76697 0.26664 -1.0865 0.51714 -0.31954 0.2505 -0.57961 0.56867 -0.76154 0.93165 -0.18193 0.36298 -0.2812 0.76175 -0.29067 1.16766C3.5 10.542 6.456 10.5 6.456 10.5h10.718s3.326 -0.421 3.326 -3.57296Z" stroke-width="1"></path><path fill="#e3e3e3" d="M17.174 7.99997H6.45601c-0.52346 0.00809 -1.04072 -0.11395 -1.50536 -0.35517 -0.46463 -0.24122 -0.86207 -0.59406 -1.15664 -1.02683 -0.19406 0.37088 -0.29496 0.78341 -0.294 1.202 0 2.72203 2.956 2.68003 2.956 2.68003H17.174s3.326 -0.421 3.326 -3.57303c0.0004 -0.41388 -0.0738 -0.82443 -0.219 -1.212 -0.2864 0.60964 -0.7207 1.13801 -1.2633 1.53708 -0.5426 0.39906 -1.1764 0.65616 -1.8437 0.74792Z" stroke-width="1"></path><path stroke="#191919" stroke-linecap="round" stroke-linejoin="round" d="M20.5 6.92704c-0.0083 -0.4882 -0.115 -0.96972 -0.3136 -1.41575 -0.1987 -0.44603 -0.4853 -0.84741 -0.8426 -1.18013 -0.3574 -0.33272 -0.7782 -0.58994 -1.2373 -0.75629 -0.459 -0.16634 -0.9469 -0.23839 -1.4345 -0.21183 -0.4336 -0.86598 -1.1011 -1.59319 -1.9268 -2.09921C13.9194 0.757807 12.9684 0.493217 12 0.500044 10.704 0.481321 9.44942 0.956779 8.49134 1.82979 7.53326 2.7028 6.94353 3.90785 6.842 5.20004c-0.39644 -0.08769 -0.80738 -0.08648 -1.20329 0.00355 -0.39592 0.09003 -0.76697 0.26664 -1.0865 0.51714 -0.31954 0.2505 -0.57961 0.56867 -0.76154 0.93165 -0.18193 0.36298 -0.2812 0.76175 -0.29067 1.16766C3.5 10.542 6.456 10.5 6.456 10.5h10.718s3.326 -0.421 3.326 -3.57296Z" stroke-width="1"></path><path stroke="#191919" stroke-linecap="round" stroke-linejoin="round" d="M20.5 17c0 0.3978 -0.158 0.7794 -0.4393 1.0607S19.3978 18.5 19 18.5H5c-0.39782 0 -0.77936 -0.158 -1.06066 -0.4393C3.65804 17.7794 3.5 17.3978 3.5 17v-2c0 -0.3978 0.15804 -0.7794 0.43934 -1.0607S4.60218 13.5 5 13.5h14c0.3978 0 0.7794 0.158 1.0607 0.4393S20.5 14.6022 20.5 15v2Z" stroke-width="1"></path><path stroke="#191919" d="M6.75 16.25c-0.13807 0 -0.25 -0.1119 -0.25 -0.25s0.11193 -0.25 0.25 -0.25" stroke-width="1"></path><path stroke="#191919" d="M6.75 16.25c0.13807 0 0.25 -0.1119 0.25 -0.25s-0.11193 -0.25 -0.25 -0.25" stroke-width="1"></path><path stroke="#191919" d="M6.75 21.249c-0.13807 0 -0.25 -0.1119 -0.25 -0.25 0 -0.138 0.11193 -0.25 0.25 -0.25" stroke-width="1"></path><path stroke="#191919" d="M6.75 21.249c0.13807 0 0.25 -0.1119 0.25 -0.25 0 -0.138 -0.11193 -0.25 -0.25 -0.25" stroke-width="1"></path><g><path stroke="#191919" d="M9.25 16.25c-0.13807 0 -0.25 -0.1119 -0.25 -0.25s0.11193 -0.25 0.25 -0.25" stroke-width="1"></path><path stroke="#191919" d="M9.25 16.25c0.13807 0 0.25 -0.1119 0.25 -0.25s-0.11193 -0.25 -0.25 -0.25" stroke-width="1"></path></g><g><path stroke="#191919" d="M9.25 21.249c-0.13807 0 -0.25 -0.1119 -0.25 -0.25 0 -0.138 0.11193 -0.25 0.25 -0.25" stroke-width="1"></path><path stroke="#191919" d="M9.25 21.249c0.13807 0 0.25 -0.1119 0.25 -0.25 0 -0.138 -0.11193 -0.25 -0.25 -0.25" stroke-width="1"></path></g></svg>