<svg xmlns="http://www.w3.org/2000/svg" fill="none" viewBox="0 0 24 24" id="Cog-Double-2--Streamline-Ultimate.svg"><desc>Cog Double 2 Streamline Icon: https://streamlinehq.com</desc><path fill="#e3e3e3" d="m22.964 6.134 -0.564 -0.328a3.48 3.48 0 0 0 -0.01 -1.606l0.574 -0.331a0.5 0.5 0 0 0 0.183 -0.683l-0.5 -0.867a0.5 0.5 0 0 0 -0.684 -0.183l-0.573 0.332A3.462 3.462 0 0 0 20 1.656V1a0.5 0.5 0 0 0 -0.5 -0.5h-1a0.5 0.5 0 0 0 -0.5 0.5v0.656a3.49 3.49 0 0 0 -1.395 0.806l-0.568 -0.329a0.5 0.5 0 0 0 -0.683 0.183l-0.5 0.867a0.5 0.5 0 0 0 0.184 0.683l0.567 0.327a3.46 3.46 0 0 0 0 1.61l-0.572 0.33a0.5 0.5 0 0 0 -0.183 0.683l0.5 0.867a0.51 0.51 0 0 0 0.3 0.233 0.5 0.5 0 0 0 0.38 -0.051l0.571 -0.33c0.396 0.377 0.875 0.656 1.399 0.813V9a0.5 0.5 0 0 0 0.5 0.5h1A0.5 0.5 0 0 0 20 9v-0.655a3.487 3.487 0 0 0 1.394 -0.807l0.569 0.329a0.5 0.5 0 0 0 0.684 -0.183l0.5 -0.867a0.5 0.5 0 0 0 -0.183 -0.683ZM19 6.5a1.5 1.5 0 1 1 0 -2.999A1.5 1.5 0 0 1 19 6.5Z" stroke-width="1"></path><path fill="#ffffff" d="m14.853 6.817 0.5 0.867a0.51 0.51 0 0 0 0.3 0.233 0.5 0.5 0 0 0 0.38 -0.051l0.231 -0.134 1.671 -1.67a1.5 1.5 0 0 1 2.125 -2.121l1.674 -1.674 -0.344 0.2A3.462 3.462 0 0 0 20 1.656V1a0.5 0.5 0 0 0 -0.5 -0.5h-1a0.5 0.5 0 0 0 -0.5 0.5v0.656a3.49 3.49 0 0 0 -1.395 0.806l-0.568 -0.329a0.5 0.5 0 0 0 -0.683 0.183l-0.5 0.867a0.5 0.5 0 0 0 0.184 0.683l0.567 0.327a3.463 3.463 0 0 0 0 1.61l-0.572 0.33a0.5 0.5 0 0 0 -0.18 0.684Z" stroke-width="1"></path><path fill="#e3e3e3" d="M16.027 17.876a1 1 0 0 0 -0.466 -0.607l-0.711 -0.41a6.47 6.47 0 0 0 0 -2.715l0.711 -0.411a1 1 0 0 0 0.366 -1.366l-1 -1.732a1 1 0 0 0 -1.366 -0.366l-0.708 0.409A6.539 6.539 0 0 0 10.5 9.324V8.5a1 1 0 0 0 -1 -1h-2a1 1 0 0 0 -1 1v0.821a6.443 6.443 0 0 0 -2.356 1.356l-0.706 -0.408a1 1 0 0 0 -1.367 0.365l-1 1.732a1 1 0 0 0 0.366 1.366l0.712 0.412a6.476 6.476 0 0 0 0 2.713l-0.712 0.411a1 1 0 0 0 -0.366 1.366l1 1.732a1 1 0 0 0 1.366 0.366l0.709 -0.409A6.5 6.5 0 0 0 6.5 21.679v0.821a1 1 0 0 0 1 1h2a1 1 0 0 0 1 -1v-0.82a6.461 6.461 0 0 0 2.356 -1.355l0.706 0.408a1 1 0 0 0 1.366 -0.366l1 -1.732a1 1 0 0 0 0.099 -0.759ZM8.5 18.5a3 3 0 1 1 0 -6 3 3 0 0 1 0 6Z" stroke-width="1"></path><path fill="#ffffff" d="m1.437 13.733 0.712 0.412a6.476 6.476 0 0 0 0 2.713l-0.712 0.411a1 1 0 0 0 -0.366 1.366l1 1.732a1 1 0 0 0 1.087 0.476l3.22 -3.221a3 3 0 1 1 4.243 -4.242l3.22 -3.221a0.99 0.99 0 0 0 -0.279 0.11l-0.708 0.409A6.539 6.539 0 0 0 10.5 9.324V8.5a1 1 0 0 0 -1 -1h-2a1 1 0 0 0 -1 1v0.821a6.442 6.442 0 0 0 -2.356 1.356l-0.706 -0.408a1 1 0 0 0 -1.367 0.365l-1 1.732a1 1 0 0 0 0.366 1.367Z" stroke-width="1"></path><path stroke="#191919" stroke-linecap="round" stroke-linejoin="round" d="M16.027 17.876a1 1 0 0 0 -0.466 -0.607l-0.711 -0.41a6.47 6.47 0 0 0 0 -2.715l0.711 -0.411a1 1 0 0 0 0.366 -1.366l-1 -1.732a1 1 0 0 0 -1.366 -0.366l-0.708 0.409A6.539 6.539 0 0 0 10.5 9.324V8.5a1 1 0 0 0 -1 -1h-2a1 1 0 0 0 -1 1v0.821a6.443 6.443 0 0 0 -2.356 1.356l-0.706 -0.408a1 1 0 0 0 -1.367 0.365l-1 1.732a1 1 0 0 0 0.366 1.366l0.712 0.412a6.476 6.476 0 0 0 0 2.713l-0.712 0.411a1 1 0 0 0 -0.366 1.366l1 1.732a1 1 0 0 0 1.366 0.366l0.709 -0.409A6.5 6.5 0 0 0 6.5 21.679v0.821a1 1 0 0 0 1 1h2a1 1 0 0 0 1 -1v-0.82a6.461 6.461 0 0 0 2.356 -1.355l0.706 0.408a1 1 0 0 0 1.366 -0.366l1 -1.732a1 1 0 0 0 0.099 -0.759v0ZM8.5 18.5a3 3 0 1 1 0 -6 3 3 0 0 1 0 6v0Z" stroke-width="1"></path><path stroke="#191919" stroke-linecap="round" stroke-linejoin="round" d="m22.964 6.134 -0.564 -0.328a3.48 3.48 0 0 0 -0.01 -1.606l0.574 -0.331a0.5 0.5 0 0 0 0.183 -0.683l-0.5 -0.867a0.5 0.5 0 0 0 -0.684 -0.183l-0.573 0.332A3.462 3.462 0 0 0 20 1.656V1a0.5 0.5 0 0 0 -0.5 -0.5h-1a0.5 0.5 0 0 0 -0.5 0.5v0.656a3.49 3.49 0 0 0 -1.395 0.806l-0.568 -0.329a0.5 0.5 0 0 0 -0.683 0.183l-0.5 0.867a0.5 0.5 0 0 0 0.184 0.683l0.567 0.327a3.46 3.46 0 0 0 0 1.61l-0.572 0.33a0.5 0.5 0 0 0 -0.183 0.683l0.5 0.867a0.51 0.51 0 0 0 0.3 0.233 0.5 0.5 0 0 0 0.38 -0.051l0.571 -0.33c0.396 0.377 0.875 0.656 1.399 0.813V9a0.5 0.5 0 0 0 0.5 0.5h1A0.5 0.5 0 0 0 20 9v-0.655a3.487 3.487 0 0 0 1.394 -0.807l0.569 0.329a0.5 0.5 0 0 0 0.684 -0.183l0.5 -0.867a0.5 0.5 0 0 0 -0.183 -0.683ZM19 6.5a1.5 1.5 0 1 1 0 -2.999A1.5 1.5 0 0 1 19 6.5Z" stroke-width="1"></path></svg>