<svg xmlns="http://www.w3.org/2000/svg" fill="none" viewBox="0 0 24 24" id="Pet-Tracking-Dog-Search--Streamline-Ultimate.svg"><desc>Pet Tracking Dog Search Streamline Icon: https://streamlinehq.com</desc><path fill="#ffbc44" d="M18.465 9c0.2593 -0.45559 0.6346 -0.83439 1.0878 -1.09786 0.4531 -0.26347 0.968 -0.40222 1.4922 -0.40214 0.6511 0 1.2755 -0.25865 1.7359 -0.71905 0.4604 -0.46041 0.7191 -1.08484 0.7191 -1.73595 0 -0.40976 -0.1628 -0.80274 -0.4525 -1.09248C22.7577 3.66278 22.3648 3.5 21.955 3.5c-0.2869 0.00002 -0.5682 -0.07986 -0.8123 -0.23069 -0.2441 -0.15084 -0.4414 -0.36667 -0.5697 -0.62331 -0.1721 -0.3444 -0.4367 -0.63406 -0.7641 -0.83648 -0.3275 -0.20242 -0.7049 -0.3096 -1.0899 -0.30952 -1.385 0 -2.506 0.717 -3.213 2.484 -0.2967 0.74256 -0.8091 1.37917 -1.4711 1.82765s-1.4433 0.68824 -2.2429 0.68835H6C2.46 6.5 1.622 4 3.52 1.287c0.06464 -0.09246 0.09611 -0.20406 0.0893 -0.316661 -0.00681 -0.112604 -0.0515 -0.219597 -0.12681 -0.303592 -0.0753 -0.083995 -0.1768 -0.140056 -0.288 -0.159072C3.0833 0.488658 2.96894 0.507803 2.87 0.561999c-0.70566 0.390943 -1.2961 0.960591 -1.71208 1.651781C0.741934 2.90498 0.515041 3.69342 0.5 4.5c-0.00027 0.74724 0.208775 1.47961 0.60344 2.11412 0.39467 0.63451 0.95918 1.14579 1.62956 1.47588C1.75987 10.9692 1.17702 13.9659 1 17c0 0.3978 0.15804 0.7794 0.43934 1.0607S2.10218 18.5 2.5 18.5c0.39782 0 0.77936 -0.158 1.06066 -0.4393C3.84196 17.7794 4 17.3978 4 17v-0.63c-0.01229 -0.5227 0.08378 -1.0423 0.28217 -1.526 0.19839 -0.4838 0.4948 -0.9212 0.87056 -1.2847 0.37576 -0.3636 0.82273 -0.6454 1.31276 -0.8277 0.49003 -0.1823 1.0125 -0.2612 1.53451 -0.2316l2 0c0.8517 -0.0176 1.6962 0.1596 2.469 0.518 3.542 1.889 5.722 0.696 5.996 -4.018Z" stroke-width="1"></path><path fill="#ffdda1" d="M2.733 8.09c-0.3882 0.99302 -0.68412 2.0197 -0.884 3.067 0.7 -1.669 5.036 -1.4 9.943 -1.4 0.7995 -0.00003 1.5807 -0.23965 2.2427 -0.68794 0.662 -0.44829 1.1745 -1.08468 1.4713 -1.82706 0.707 -1.768 1.828 -2.485 3.213 -2.485 0.3846 -0.00025 0.7618 0.10653 1.0892 0.30839 0.3274 0.20186 0.5922 0.49084 0.7648 0.83461 0.1283 0.25664 0.3256 0.47247 0.5697 0.62331 0.2441 0.15083 0.5254 0.23071 0.8123 0.23069 0.2322 0.00127 0.461 0.05566 0.669 0.159 0.2734 -0.22861 0.4935 -0.51429 0.6449 -0.83699 0.1513 -0.32269 0.2302 -0.67459 0.2311 -1.03101 0 -0.40976 -0.1628 -0.80274 -0.4525 -1.09248C22.7577 3.66278 22.3648 3.5 21.955 3.5c-0.2869 0.00002 -0.5682 -0.07986 -0.8123 -0.23069 -0.2441 -0.15084 -0.4414 -0.36667 -0.5697 -0.62331 -0.1721 -0.3444 -0.4367 -0.63406 -0.7641 -0.83648 -0.3275 -0.20242 -0.7049 -0.3096 -1.0899 -0.30952 -1.385 0 -2.506 0.717 -3.213 2.484 -0.2967 0.74256 -0.8091 1.37917 -1.4711 1.82765s-1.4433 0.68824 -2.2429 0.68835H6C2.46 6.5 1.622 4 3.52 1.287c0.06464 -0.09246 0.09611 -0.20406 0.0893 -0.316661 -0.00681 -0.112604 -0.0515 -0.219597 -0.12681 -0.303592 -0.0753 -0.083995 -0.1768 -0.140056 -0.288 -0.159072C3.0833 0.488658 2.96894 0.507803 2.87 0.561999c-0.70566 0.390943 -1.2961 0.960591 -1.71208 1.651781C0.741934 2.90498 0.515041 3.69342 0.5 4.5c-0.00027 0.74724 0.208775 1.47961 0.60344 2.11412 0.39467 0.63451 0.95918 1.14579 1.62956 1.47588Z" stroke-width="1"></path><path stroke="#191919" stroke-linecap="round" stroke-linejoin="round" d="M18.465 9c0.2593 -0.45559 0.6346 -0.83439 1.0878 -1.09786 0.4531 -0.26347 0.968 -0.40222 1.4922 -0.40214 0.6511 0 1.2755 -0.25865 1.7359 -0.71905 0.4604 -0.46041 0.7191 -1.08484 0.7191 -1.73595 0 -0.40976 -0.1628 -0.80274 -0.4525 -1.09248C22.7577 3.66278 22.3648 3.5 21.955 3.5c-0.2869 0.00002 -0.5682 -0.07986 -0.8123 -0.23069 -0.2441 -0.15084 -0.4414 -0.36667 -0.5697 -0.62331 -0.1721 -0.3444 -0.4367 -0.63406 -0.7641 -0.83648 -0.3275 -0.20242 -0.7049 -0.3096 -1.0899 -0.30952 -1.385 0 -2.506 0.717 -3.213 2.484 -0.2967 0.74256 -0.8091 1.37917 -1.4711 1.82765s-1.4433 0.68824 -2.2429 0.68835H6C2.46 6.5 1.622 4 3.52 1.287c0.06464 -0.09246 0.09611 -0.20406 0.0893 -0.316661 -0.00681 -0.112604 -0.0515 -0.219597 -0.12681 -0.303592 -0.0753 -0.083995 -0.1768 -0.140056 -0.288 -0.159072C3.0833 0.488658 2.96894 0.507803 2.87 0.561999c-0.70566 0.390943 -1.2961 0.960591 -1.71208 1.651781C0.741934 2.90498 0.515041 3.69342 0.5 4.5c-0.00027 0.74724 0.208775 1.47961 0.60344 2.11412 0.39467 0.63451 0.95918 1.14579 1.62956 1.47588C1.75987 10.9692 1.17702 13.9659 1 17c0 0.3978 0.15804 0.7794 0.43934 1.0607S2.10218 18.5 2.5 18.5c0.39782 0 0.77936 -0.158 1.06066 -0.4393C3.84196 17.7794 4 17.3978 4 17v-0.63c-0.01229 -0.5227 0.08378 -1.0423 0.28217 -1.526 0.19839 -0.4838 0.4948 -0.9212 0.87056 -1.2847 0.37576 -0.3636 0.82273 -0.6454 1.31276 -0.8277 0.49003 -0.1823 1.0125 -0.2612 1.53451 -0.2316l2 0c0.8517 -0.0174 1.6961 0.1598 2.469 0.518" stroke-width="1"></path><path fill="#ff808c" d="m16.011 9.488 -3.136 -3.137c0.6985 -0.19809 1.3307 -0.58086 1.83 -1.108L18.465 9c-0.0352 0.81853 -0.1665 1.6301 -0.391 2.418l-2.063 -1.93Z" stroke-width="1"></path><path stroke="#191919" stroke-linecap="round" stroke-linejoin="round" d="m14.705 5.243 3.76 3.758" stroke-width="1"></path><path stroke="#191919" stroke-linecap="round" stroke-linejoin="round" d="m16.011 9.488 -3.136 -3.137" stroke-width="1"></path><path stroke="#191919" stroke-linecap="round" stroke-linejoin="round" d="M18.75 4.5c0.0663 0 0.1299 0.02634 0.1768 0.07322 0.0469 0.04689 0.0732 0.11048 0.0732 0.17678" stroke-width="1"></path><path stroke="#191919" stroke-linecap="round" stroke-linejoin="round" d="M18.5 4.75c0 -0.0663 0.0263 -0.12989 0.0732 -0.17678 0.0469 -0.04688 0.1105 -0.07322 0.1768 -0.07322" stroke-width="1"></path><path stroke="#191919" stroke-linecap="round" stroke-linejoin="round" d="M18.75 5c-0.0663 0 -0.1299 -0.02634 -0.1768 -0.07322C18.5263 4.87989 18.5 4.8163 18.5 4.75" stroke-width="1"></path><path stroke="#191919" stroke-linecap="round" stroke-linejoin="round" d="M19 4.75c0 0.0663 -0.0263 0.12989 -0.0732 0.17678C18.8799 4.97366 18.8163 5 18.75 5" stroke-width="1"></path><path fill="#66e1ff" d="M17.029 21.558c0.8958 0 1.7714 -0.2656 2.5162 -0.7633 0.7448 -0.4976 1.3253 -1.205 1.6681 -2.0325 0.3427 -0.8276 0.4324 -1.7382 0.2577 -2.6168 -0.1748 -0.8785 -0.6061 -1.6855 -1.2395 -2.3189 -0.6334 -0.6334 -1.4404 -1.0647 -2.3189 -1.2395 -0.8786 -0.1747 -1.7892 -0.085 -2.6168 0.2578 -0.8275 0.3427 -1.5349 0.9232 -2.0325 1.668 -0.4977 0.7448 -0.7633 1.6204 -0.7633 2.5162 0 0.5948 0.1171 1.1837 0.3447 1.7332 0.2277 0.5495 0.5613 1.0487 0.9818 1.4693 0.8494 0.8493 2.0013 1.3265 3.2025 1.3265Z" stroke-width="1"></path><path fill="#c2f3ff" d="M17.029 12.5c-0.8973 -0.0004 -1.7745 0.2659 -2.5202 0.7651 -0.7457 0.4991 -1.3262 1.2086 -1.6678 2.0384 -0.3416 0.8297 -0.429 1.7423 -0.2509 2.6218 0.178 0.8794 0.6134 1.6862 1.2509 2.3177l6.4 -6.4c-0.4198 -0.4254 -0.9199 -0.7631 -1.4713 -0.9937 -0.5514 -0.2305 -1.1431 -0.3493 -1.7407 -0.3493Z" stroke-width="1"></path><path stroke="#191919" stroke-linecap="round" stroke-linejoin="round" d="M17.029 21.558c0.8958 0 1.7714 -0.2656 2.5162 -0.7633 0.7448 -0.4976 1.3253 -1.205 1.6681 -2.0325 0.3427 -0.8276 0.4324 -1.7382 0.2577 -2.6168 -0.1748 -0.8785 -0.6061 -1.6855 -1.2395 -2.3189 -0.6334 -0.6334 -1.4404 -1.0647 -2.3189 -1.2395 -0.8786 -0.1747 -1.7892 -0.085 -2.6168 0.2578 -0.8275 0.3427 -1.5349 0.9232 -2.0325 1.668 -0.4977 0.7448 -0.7633 1.6204 -0.7633 2.5162 0 0.5948 0.1171 1.1837 0.3447 1.7332 0.2277 0.5495 0.5613 1.0487 0.9818 1.4693 0.8494 0.8493 2.0013 1.3265 3.2025 1.3265v0Z" stroke-width="1"></path><path stroke="#191919" stroke-linecap="round" stroke-linejoin="round" d="m23.5 23.5 -3.248 -3.25" stroke-width="1"></path></svg>